<svg width="135" height="40" fill="none" xmlns="http://www.w3.org/2000/svg"><path d="M130 0H5a5 5 0 0 0-5 5v30a5 5 0 0 0 5 5h125a5.002 5.002 0 0 0 5-5V5a5.002 5.002 0 0 0-5-5z" fill="#000"/><path d="M130 .8a4.2 4.2 0 0 1 4.2 4.2v30a4.198 4.198 0 0 1-4.2 4.2H5A4.2 4.2 0 0 1 .8 35V5A4.2 4.2 0 0 1 5 .8h125zm0-.8H5C2.25 0 0 2.25 0 5v30c0 2.75 2.25 5 5 5h125c2.75 0 5-2.25 5-5V5c0-2.75-2.25-5-5-5z" fill="#A6A6A6"/><path d="M32.797 18.863a4.948 4.948 0 0 1 2.357-4.152 5.064 5.064 0 0 0-3.992-2.157c-1.679-.176-3.307 1.005-4.162 1.005-.873 0-2.19-.988-3.609-.959a5.315 5.315 0 0 0-4.473 2.728c-1.934 3.349-.49 8.27 1.361 10.976.927 1.326 2.01 2.806 3.428 2.754 1.387-.058 1.905-.885 3.58-.885 1.658 0 2.144.885 3.59.851 1.49-.024 2.426-1.33 3.32-2.669a10.962 10.962 0 0 0 1.52-3.092 4.782 4.782 0 0 1-2.92-4.4zm-2.73-8.09a4.872 4.872 0 0 0 1.113-3.49 4.957 4.957 0 0 0-3.207 1.66 4.635 4.635 0 0 0-1.144 3.361 4.1 4.1 0 0 0 3.236-1.53l.001-.001zm20.263 14.93h-4.733l-1.137 3.356h-2.005l4.484-12.418h2.083l4.483 12.418h-2.04l-1.135-3.356zm-4.243-1.55h3.752l-1.85-5.446h-.05l-1.852 5.447v-.001zm17.101.38c0 2.813-1.506 4.62-3.779 4.62a3.07 3.07 0 0 1-2.848-1.583h-.043v4.484H54.66V20.005h1.8v1.506h.033a3.21 3.21 0 0 1 2.883-1.6c2.298 0 3.813 1.816 3.813 4.622zm-1.91 0c0-1.833-.948-3.038-2.393-3.038-1.42 0-2.375 1.23-2.375 3.038 0 1.824.955 3.046 2.375 3.046 1.445 0 2.392-1.197 2.392-3.046h.001zm11.875 0c0 2.813-1.506 4.62-3.779 4.62a3.07 3.07 0 0 1-2.848-1.583h-.043v4.484h-1.859V20.005h1.8v1.506h.033a3.21 3.21 0 0 1 2.883-1.6c2.298 0 3.813 1.816 3.813 4.622zm-1.91 0c0-1.833-.948-3.038-2.393-3.038-1.42 0-2.375 1.23-2.375 3.038 0 1.824.955 3.046 2.375 3.046 1.445 0 2.392-1.197 2.392-3.046h.001zm8.495 1.066c.138 1.232 1.334 2.04 2.97 2.04 1.566 0 2.693-.808 2.693-1.919 0-.964-.68-1.54-2.29-1.936l-1.609-.388c-2.28-.55-3.339-1.617-3.339-3.348 0-2.142 1.867-3.614 4.52-3.614 2.623 0 4.422 1.472 4.482 3.614H85.29c-.112-1.239-1.136-1.987-2.634-1.987-1.497 0-2.52.757-2.52 1.858 0 .878.653 1.395 2.254 1.79l1.368.336c2.548.603 3.606 1.626 3.606 3.443 0 2.323-1.85 3.778-4.793 3.778-2.754 0-4.614-1.42-4.734-3.667h1.902zm11.636-7.736v2.142h1.722v1.472h-1.722v4.991c0 .776.345 1.137 1.102 1.137.205-.004.409-.018.611-.043v1.463c-.34.064-.686.092-1.032.086-1.833 0-2.548-.689-2.548-2.444v-5.19h-1.316v-1.472h1.316v-2.142h1.867zm2.72 6.67c0-2.849 1.677-4.639 4.293-4.639 2.625 0 4.295 1.79 4.295 4.639 0 2.856-1.661 4.638-4.295 4.638-2.633 0-4.294-1.782-4.294-4.638zm6.694 0c0-1.954-.895-3.108-2.4-3.108-1.507 0-2.4 1.162-2.4 3.108 0 1.962.893 3.106 2.4 3.106 1.505 0 2.4-1.144 2.4-3.106zm3.426-4.528h1.772v1.541h.043a2.162 2.162 0 0 1 2.178-1.635c.214-.001.428.022.637.07v1.737a2.591 2.591 0 0 0-.835-.112 1.87 1.87 0 0 0-1.937 2.083v5.37h-1.858v-9.054zm13.198 6.395c-.25 1.643-1.85 2.771-3.898 2.771-2.634 0-4.269-1.764-4.269-4.595 0-2.84 1.644-4.682 4.191-4.682 2.505 0 4.08 1.72 4.08 4.466v.637h-6.395v.112a2.354 2.354 0 0 0 2.436 2.564 2.043 2.043 0 0 0 2.091-1.273h1.764zm-6.282-2.702h4.526a2.15 2.15 0 0 0-.608-1.634 2.17 2.17 0 0 0-1.612-.664 2.292 2.292 0 0 0-2.306 2.298zM45.854 7.293a2.64 2.64 0 0 1 2.808 2.966c0 1.906-1.03 3.002-2.808 3.002H43.7V7.293h2.155zm-1.228 5.124h1.125a1.878 1.878 0 0 0 1.967-2.146 1.882 1.882 0 0 0-1.967-2.134h-1.125v4.28zm5.082-1.41a2.133 2.133 0 1 1 4.248 0 2.133 2.133 0 1 1-4.248 0zm3.333 0c0-.976-.438-1.547-1.208-1.547-.772 0-1.207.571-1.207 1.547 0 .984.435 1.55 1.207 1.55.77 0 1.208-.57 1.208-1.55zm6.56 2.254h-.922l-.93-3.317h-.07l-.927 3.317h-.914l-1.24-4.503h.9l.807 3.436h.067l.925-3.436h.853l.926 3.436h.07l.803-3.436h.89L59.6 13.261zm2.281-4.503h.855v.715h.066a1.348 1.348 0 0 1 1.344-.802 1.466 1.466 0 0 1 1.56 1.675v2.915h-.89v-2.692c0-.724-.314-1.084-.972-1.084a1.034 1.034 0 0 0-1.075 1.141v2.635h-.888V8.758zM67.122 7h.888v6.26h-.888V7zm2.124 4.007a2.133 2.133 0 1 1 4.247 0 2.134 2.134 0 1 1-4.247 0zm3.333 0c0-.976-.439-1.546-1.208-1.546-.773 0-1.208.57-1.208 1.546 0 .984.435 1.55 1.208 1.55.77 0 1.208-.57 1.208-1.55zm1.85.98c0-.81.603-1.277 1.675-1.344l1.22-.07v-.389c0-.476-.315-.744-.922-.744-.497 0-.84.182-.939.5h-.86c.09-.773.818-1.27 1.84-1.27 1.128 0 1.765.563 1.765 1.514v3.077h-.855v-.633h-.07a1.515 1.515 0 0 1-1.353.707 1.36 1.36 0 0 1-1.5-1.348zm2.894-.384v-.377l-1.1.07c-.62.042-.9.253-.9.65 0 .405.351.64.834.64a1.063 1.063 0 0 0 1.166-.983zm2.053-.596c0-1.423.732-2.324 1.87-2.324a1.484 1.484 0 0 1 1.38.79h.066V7h.89v6.26h-.852v-.71h-.07a1.564 1.564 0 0 1-1.415.785c-1.145 0-1.869-.901-1.869-2.328zm.918 0c0 .955.45 1.53 1.203 1.53.75 0 1.212-.583 1.212-1.526 0-.938-.468-1.53-1.212-1.53-.748 0-1.203.58-1.203 1.526zm6.964 0a2.134 2.134 0 1 1 4.247 0 2.133 2.133 0 1 1-4.247 0zm3.333 0c0-.976-.439-1.547-1.208-1.547-.773 0-1.207.571-1.207 1.547 0 .984.434 1.55 1.207 1.55.77 0 1.208-.57 1.208-1.55zm2.106-2.249h.856v.715h.066a1.348 1.348 0 0 1 1.344-.802 1.466 1.466 0 0 1 1.56 1.675v2.915h-.89v-2.692c0-.724-.314-1.084-.972-1.084a1.034 1.034 0 0 0-1.075 1.141v2.635h-.889V8.758zm8.846-1.121v1.141h.976v.749h-.976v2.315c0 .472.194.678.637.678.113 0 .226-.007.339-.02v.74c-.16.029-.322.044-.484.046-.988 0-1.382-.348-1.382-1.216V9.527h-.714v-.749h.715V7.637h.89-.001zm2.19-.637h.88v2.482h.07a1.386 1.386 0 0 1 1.374-.807 1.487 1.487 0 0 1 1.494 1.034c.066.208.085.428.056.644v2.908h-.89v-2.688c0-.72-.334-1.084-.962-1.084a1.047 1.047 0 0 0-1.076.69 1.049 1.049 0 0 0-.058.452v2.63h-.888V7zm9.056 5.045a1.823 1.823 0 0 1-1.951 1.303 2.048 2.048 0 0 1-2.08-2.324 2.095 2.095 0 0 1 .071-.88 2.09 2.09 0 0 1 2.005-1.473c1.253 0 2.009.856 2.009 2.27v.31h-3.18v.05a1.192 1.192 0 0 0 1.2 1.29 1.077 1.077 0 0 0 1.071-.546h.855zm-3.126-1.451h2.275a1.088 1.088 0 0 0-1.109-1.167 1.156 1.156 0 0 0-.829.337 1.151 1.151 0 0 0-.337.83z" fill="#fff"/></svg>